<svg xmlns="http://www.w3.org/2000/svg" viewBox="0 0 900 240"><defs><style>.cls-1{opacity:0.64;}.cls-2{fill:#08111b;}.cls-3{fill:#8ec4e0;}.cls-4,.cls-5{fill:#f2f2f2;}.cls-5{stroke:#000;stroke-miterlimit:10;}</style></defs><g id="Layer_2" data-name="Layer 2"><g id="Layer_6" data-name="Layer 6"><g class="cls-1"><polygon class="cls-2" points="806.18 4 104.54 4 98.36 0 93.64 0 0 60.65 0 179.35 93.64 240 98.36 240 104.54 236 806.18 236 896 177.18 896 62.83 806.18 4"/></g><path class="cls-3" d="M807.37,0H93.63L0,60.65v118.7L93.63,240H807.37L900,179.35V60.65ZM896,177.17,806.18,236H94.82L4,177.17V62.83L94.82,4H806.18L896,62.83Z"/><path d="M95.56,216.21c-.11-.21-.26-.51-.44-.89a24.62,24.62,0,0,1-2.07-8.43c0-.34-.07-.69-.11-1a61.88,61.88,0,0,0-1.19-6.73,55.67,55.67,0,0,0-3.57-9.91c-1.74-4-2.61-6-3.92-7.87a24,24,0,0,0-3.66-4.07c-.89-.86-2-1.94-3.49-3.45l-.46-.46c-2.77-2.81-4.61-4.66-6.16-6.58a45,45,0,0,1-7.6-13.92,45.56,45.56,0,0,1-2.53-20.27c.14-1.19.32-2.4.56-3.62l-.38-.73c-4.46-8.53-9.29-14.19-14.37-16.82l-.26-.13a28.08,28.08,0,0,1-6.19-4.18,29.17,29.17,0,0,1-6.67-9l-.2-.4c-2.67-5.17-7-10.2-13-15l-4-3.17,5.08.27a20.64,20.64,0,0,1,8.4,2.22c2.36,1.21,3.93,2.69,9.17,8.62-.73-1-1.47-2-2.23-2.9L34.4,85.44l3-.29c.32,0,.64-.05,1-.05s.65,0,1,.05c5,.49,8.07,4.49,11,8.37.56.74,1.15,1.5,1.73,2.21l2.73-.39a13.33,13.33,0,0,1,1.88-.14,12.7,12.7,0,0,1,1.85.14c6.86,1,10.44,7.48,11.25,9.14.79-2.55,1.1-4.17.77-5.51a10.79,10.79,0,0,0-1.92-3.71,19.25,19.25,0,0,1-3.38-7.32,23.1,23.1,0,0,1-.44-2.62l-.22-2A14.72,14.72,0,0,1,60.57,79c-1.14-2-1.41-3.67-1.82-6.26a36.79,36.79,0,0,1-.43-7.66l.34-7.57,1.61,4A17.21,17.21,0,0,1,60,58.28a19.19,19.19,0,0,1,3.56-11.13l2.42-3.4.52,4.14a39.57,39.57,0,0,0,.78,4.3v.06l.18.83a27.2,27.2,0,0,1,.74-12.8,26.36,26.36,0,0,1,8.25-12.17l3.6-3-1,4.61a96.76,96.76,0,0,0-2,16,25.27,25.27,0,0,0,.8,8.71,25.15,25.15,0,0,0,3,6.24A31.12,31.12,0,0,0,86,66.94a39.32,39.32,0,0,1,5,5.86,41.72,41.72,0,0,1,5.51,10.61c.14.44.31,1,.49,1.53.18-.58.35-1.09.49-1.53A41.39,41.39,0,0,1,103,72.8a39.32,39.32,0,0,1,5-5.86,31.12,31.12,0,0,0,5.1-6.28,24.13,24.13,0,0,0,3-6.24,25,25,0,0,0,.81-8.71,96.76,96.76,0,0,0-2-16l-1-4.61,3.6,3a26.36,26.36,0,0,1,8.25,12.17,27.2,27.2,0,0,1,.74,12.8l.18-.83v-.06a39.14,39.14,0,0,0,.78-4.3l.52-4.14,2.42,3.4a19.19,19.19,0,0,1,3.56,11.13,17.4,17.4,0,0,1-.32,3.32l1.61-4.05.34,7.57a36.83,36.83,0,0,1-.43,7.66A16.46,16.46,0,0,1,133.43,79a14.72,14.72,0,0,1-4.05,4.28l-.22,2a23.1,23.1,0,0,1-.44,2.62,19.25,19.25,0,0,1-3.38,7.32A10.79,10.79,0,0,0,123.42,99c-.33,1.34,0,3,.77,5.51.81-1.66,4.39-8.1,11.25-9.14a12.7,12.7,0,0,1,1.85-.14,13.33,13.33,0,0,1,1.88.14l2.73.39c.58-.71,1.17-1.47,1.73-2.21,3-3.88,6-7.88,11-8.37.32,0,.65-.05,1-.05s.65,0,1,.05l3,.29-1.88,2.35c-.76.95-1.5,1.92-2.23,2.9,5.24-5.93,6.81-7.41,9.17-8.62a20.64,20.64,0,0,1,8.4-2.22l5.08-.27-4,3.17c-6,4.75-10.34,9.78-13,15l-.2.4a29.17,29.17,0,0,1-6.67,9,28.08,28.08,0,0,1-6.19,4.18l-.26.13c-5.08,2.63-9.91,8.29-14.37,16.82l-.38.73c.24,1.22.42,2.43.56,3.62a45.56,45.56,0,0,1-2.53,20.27,45,45,0,0,1-7.6,13.92c-1.55,1.91-3.38,3.77-6.16,6.57l-.46.47c-1.49,1.51-2.6,2.59-3.49,3.45a24,24,0,0,0-3.66,4.07c-1.31,1.9-2.18,3.89-3.92,7.87a55.67,55.67,0,0,0-3.57,9.91,61.88,61.88,0,0,0-1.19,6.73c0,.34-.08.69-.11,1a24.63,24.63,0,0,1-2.07,8.42c-.18.38-.33.68-.44.88L97,218.92ZM81.1,159.16A46.91,46.91,0,0,0,86.33,165c.91.89,1.66,1.58,2.39,2.24A33.26,33.26,0,0,1,93,171.68c.22.29.45.58.67.88l-2.45-18.89Zm19.24,13.4c.22-.3.45-.59.67-.88a33.26,33.26,0,0,1,4.27-4.43c.73-.66,1.48-1.35,2.39-2.24a46.91,46.91,0,0,0,5.23-5.85l-10.11-5.49ZM75.28,143.51c0,.44.08.87.13,1.3a30.19,30.19,0,0,0,3.16,10.32L83.94,146Zm40.15,11.62a30.19,30.19,0,0,0,3.16-10.32c0-.43.09-.86.13-1.3L110.06,146Zm-36.2-29c-.41.69-.79,1.39-1.13,2.08a28.45,28.45,0,0,0-2.6,8.6L84,134.59Zm39.27,10.68a28.45,28.45,0,0,0-2.6-8.6c-.34-.69-.72-1.38-1.13-2.08L110,134.59Zm-15.92-9.76,9.23-5.16c-1.22-1.52-2.4-2.81-3.37-3.87a85.18,85.18,0,0,1-7.06-8.31,37.58,37.58,0,0,1-2.58-3.92s-.46-.85-.83-1.63a19.67,19.67,0,0,1-1-2.54,19.67,19.67,0,0,1-1,2.54c-.37.78-.81,1.59-.83,1.62a36.74,36.74,0,0,1-2.58,3.93A86.53,86.53,0,0,1,85.56,118c-1,1.06-2.15,2.34-3.37,3.87l9.23,5.16L97,102.89Z"/><path class="cls-4" d="M107.59,144.6l8.14,13.84-14.25-7.73L97,185.32l-4.48-34.61-14.25,7.73,8.14-13.84-17.1-4.89,17.1-4.48-7.73-13.84,13.84,7.74L97,109.73l4.48,19.4,13.84-7.74-7.73,13.84,17.1,4.48ZM62,127.09a47.86,47.86,0,0,1,3.26-10.18c.33-.71,1-2.2,2-4.48.89-2.05,1.58-3.75,2-4.89a14.73,14.73,0,0,0-.81-2.44c-.19-.42-3.41-7.53-10.18-8.55a11.21,11.21,0,0,0-3.26,0,36.35,36.35,0,0,1,4.89,5.7,38.31,38.31,0,0,1,2.44,4.07A44.49,44.49,0,0,1,51,96.55c-3.51-4.26-6.53-9.67-11.81-10.18a9.67,9.67,0,0,0-1.63,0c.86,1.07,2.17,2.75,3.67,4.89,3.35,4.77,3.61,6,5.7,8.55,3.76,4.52,7.85,6.33,7.73,6.51s-4.23-1.67-8.55-5.29c-2.34-2-2.75-2.78-8.55-9.37-5.49-6.22-6.86-7.46-9-8.55a19.05,19.05,0,0,0-7.73-2c7.63,6.08,11.4,11.53,13.43,15.47a28.47,28.47,0,0,0,6.52,9,26.88,26.88,0,0,0,6.11,4.07C51,111.67,56.3,116.23,62,127.09Zm85.1-17.51a26.88,26.88,0,0,0,6.11-4.07,28.47,28.47,0,0,0,6.52-9c2-3.94,5.8-9.39,13.43-15.47a19.05,19.05,0,0,0-7.73,2c-2.1,1.09-3.47,2.33-9,8.55-5.8,6.59-6.21,7.4-8.55,9.37-4.32,3.62-8.43,5.48-8.55,5.29s4-2,7.73-6.51c2.09-2.51,2.35-3.78,5.7-8.55,1.5-2.14,2.81-3.82,3.67-4.89a9.67,9.67,0,0,0-1.63,0c-5.28.51-8.3,5.92-11.81,10.18a44.49,44.49,0,0,1-11.4,9.77,38.31,38.31,0,0,1,2.44-4.07,36.35,36.35,0,0,1,4.89-5.7,11.21,11.21,0,0,0-3.26,0c-6.77,1-10,8.13-10.18,8.55a14.73,14.73,0,0,0-.81,2.44c.45,1.14,1.14,2.84,2,4.89,1,2.28,1.71,3.77,2,4.48A47.86,47.86,0,0,1,132,127.09C137.7,116.23,143.05,111.67,147.08,109.58ZM94.69,177a28.43,28.43,0,0,0-3-4.66c-2.25-2.85-3.77-3.82-6.52-6.52a47.34,47.34,0,0,1-5.78-6.56L75,161.62l2.85-4.85a31.58,31.58,0,0,1-4-12.17c-.07-.57-.15-1.38-.19-2.39l-8.91-2.55,9.06-2.37a30.51,30.51,0,0,1,2.89-10.2,31.34,31.34,0,0,1,1.93-3.38l-3.07-5.49,5,2.79c1.4-1.81,2.79-3.32,3.88-4.51a86.07,86.07,0,0,0,6.92-8.14,34.91,34.91,0,0,0,2.47-3.76s.44-.79.79-1.53a25.27,25.27,0,0,0,2-11.41A28.67,28.67,0,0,0,95,83.52a39.43,39.43,0,0,0-5.29-10.18c-4.16-5.9-6.27-6-10.18-12.21a27.3,27.3,0,0,1-3.2-6.64,26.56,26.56,0,0,1-.87-9.24,97.23,97.23,0,0,1,2-16.29,24.55,24.55,0,0,0-7.74,11.4,25.72,25.72,0,0,0-.41,13.44,29.35,29.35,0,0,0,3.67,9c3.32,5.76,5.55,6.3,9.44,11.26,2.45,3.12,8.94,11.4,8.06,21.32a22.09,22.09,0,0,1-2.85,9,27.33,27.33,0,0,0,1.53-14.86A26.81,26.81,0,0,0,86,81.08C80.43,70.86,73.42,69.82,68.5,60.31a30.76,30.76,0,0,1-2.85-8.14,42.65,42.65,0,0,1-.82-4.48,17.67,17.67,0,0,0-3.26,10.18,19,19,0,0,0,3.67,10.59c1.48,2.24,3,3.69,6.09,6.58,3.81,3.58,4.24,3.36,6.13,5.22C82.21,85,84.6,92.11,84,97.37a26.33,26.33,0,0,1-2.44,7.73,21.23,21.23,0,0,1-1.22,2,22.56,22.56,0,0,0,2.85-12.22,21,21,0,0,0-2.45-8.44,23.42,23.42,0,0,0-5.29-6.22c-2.18-2-2.33-1.61-6.52-4.88-4.48-3.51-5.75-5-6.51-6.11A20.6,20.6,0,0,1,60,64.79a35.92,35.92,0,0,0,.4,7.33c.42,2.57.67,4,1.63,5.7s2.15,2.62,4.48,4.48c3.11,2.48,4,2.46,6.11,4.48a16.24,16.24,0,0,1,3.26,4.07,15.64,15.64,0,0,1,1.22,11,16.94,16.94,0,0,1-1.63,4.08,16.3,16.3,0,0,1-2,2.85,18.15,18.15,0,0,0,2.85-6.93,15.37,15.37,0,0,0,0-6.51,14.7,14.7,0,0,0-6.1-9,13.57,13.57,0,0,0-3.67-1.63,23.15,23.15,0,0,0,.41,2.45c1.32,5.85,4.34,7.11,5.29,11,.58,2.36-.29,5-2,10.18-1.45,4.32-2.56,5.84-4.08,9.36A52.79,52.79,0,0,0,62,132.38a47.08,47.08,0,0,0,9.77,33c1.59,1.95,3.52,3.88,6.52,6.92,4.56,4.61,5.56,5.19,7.33,7.73,1.4,2,2.29,4.07,4.07,8.15a56.77,56.77,0,0,1,3.67,10.18,66.63,66.63,0,0,1,1.22,6.92c.32,2.78.45,5.59,2,9L97,215V194.83ZM97,194.83V215l.41-.81c1.58-3.37,1.71-6.18,2-9a66.63,66.63,0,0,1,1.22-6.92,56.77,56.77,0,0,1,3.67-10.18c1.78-4.08,2.67-6.12,4.07-8.15,1.77-2.54,2.77-3.12,7.33-7.73,3-3,4.93-5,6.52-6.92a47.08,47.08,0,0,0,9.77-33A52.79,52.79,0,0,0,128,117.72c-1.52-3.52-2.63-5-4.08-9.36-1.74-5.21-2.61-7.82-2-10.18,1-3.88,4-5.14,5.29-11a23.15,23.15,0,0,0,.41-2.45,13.57,13.57,0,0,0-3.67,1.63,14.7,14.7,0,0,0-6.1,9,15.37,15.37,0,0,0,0,6.51,18.15,18.15,0,0,0,2.85,6.93,16.3,16.3,0,0,1-2-2.85,16.94,16.94,0,0,1-1.63-4.08,15.64,15.64,0,0,1,1.22-11,16.24,16.24,0,0,1,3.26-4.07c2.1-2,3-2,6.11-4.48,2.33-1.86,3.49-2.78,4.48-4.48s1.21-3.13,1.63-5.7a35.92,35.92,0,0,0,.4-7.33,20.6,20.6,0,0,1-2.44,4.48c-.76,1.06-2,2.6-6.51,6.11-4.19,3.27-4.34,2.91-6.52,4.88a23.42,23.42,0,0,0-5.29,6.22,21,21,0,0,0-2.45,8.44,22.56,22.56,0,0,0,2.85,12.22,19.14,19.14,0,0,1-1.22-2A26.33,26.33,0,0,1,110,97.37c-.63-5.26,1.76-12.39,6.51-17.11,1.89-1.86,2.32-1.64,6.13-5.22,3.07-2.89,4.61-4.34,6.09-6.58a18.93,18.93,0,0,0,3.66-10.59,17.6,17.6,0,0,0-3.25-10.18,42.65,42.65,0,0,1-.82,4.48,30.76,30.76,0,0,1-2.85,8.14c-4.92,9.51-11.93,10.55-17.51,20.77a26.81,26.81,0,0,0-3.15,8.35,27.33,27.33,0,0,0,1.53,14.86,22.23,22.23,0,0,1-2.86-9c-.87-9.92,5.62-18.2,8.07-21.32,3.89-5,6.12-5.5,9.44-11.26a29.35,29.35,0,0,0,3.67-9,25.72,25.72,0,0,0-.41-13.44A24.55,24.55,0,0,0,116.54,29a97.23,97.23,0,0,1,2,16.29,26.56,26.56,0,0,1-.87,9.24,27.3,27.3,0,0,1-3.2,6.64c-3.91,6.24-6,6.31-10.18,12.21A39.43,39.43,0,0,0,99,83.52a28.67,28.67,0,0,0-1.63,8.14,25.27,25.27,0,0,0,2,11.41c.35.74.79,1.53.79,1.53a34.91,34.91,0,0,0,2.47,3.76,86.07,86.07,0,0,0,6.92,8.14c1.09,1.19,2.48,2.7,3.88,4.51l5-2.79-3.07,5.49a31.34,31.34,0,0,1,1.93,3.38,30.51,30.51,0,0,1,2.89,10.2l9.06,2.37-8.91,2.55c0,1-.12,1.82-.19,2.39a31.58,31.58,0,0,1-4,12.17l2.85,4.85-4.42-2.41a47.34,47.34,0,0,1-5.78,6.56c-2.75,2.7-4.27,3.67-6.52,6.52a28.43,28.43,0,0,0-3,4.66Z"/><path class="cls-5" d="M212.87,136.16V153h-12V103.28h19.86a23.17,23.17,0,0,1,10.1,2.1,15.87,15.87,0,0,1,6.8,6,16.31,16.31,0,0,1,2.41,8.8,14.43,14.43,0,0,1-5.21,11.64q-5.22,4.35-14.31,4.36Zm0-9.27h7.86a7.42,7.42,0,0,0,5.31-1.74,6.47,6.47,0,0,0,1.83-4.92,8,8,0,0,0-1.88-5.57,6.64,6.64,0,0,0-5.13-2.12h-8Z"/><path class="cls-5" d="M272.1,139.81a4.94,4.94,0,0,0-1.86-4.1,23.39,23.39,0,0,0-6.55-3,63.81,63.81,0,0,1-7.66-3q-9.67-4.75-9.67-13.06a11.69,11.69,0,0,1,2.41-7.3,15.72,15.72,0,0,1,6.82-4.92,26.59,26.59,0,0,1,9.91-1.76,23.11,23.11,0,0,1,9.62,1.92,15.17,15.17,0,0,1,6.62,5.45A14.25,14.25,0,0,1,284.1,118h-12a6,6,0,0,0-1.86-4.72,7.28,7.28,0,0,0-5-1.67,8.17,8.17,0,0,0-5.08,1.42,4.17,4.17,0,0,0,.19,7.07,25.91,25.91,0,0,0,7.21,3.22,43.67,43.67,0,0,1,8.48,3.57q8.07,4.65,8.07,12.82A12.13,12.13,0,0,1,279.17,150q-4.92,3.72-13.5,3.72a26.72,26.72,0,0,1-11-2.17,16.49,16.49,0,0,1-7.38-5.94,15.45,15.45,0,0,1-2.48-8.7h12c0,2.66.69,4.63,2.07,5.89s3.61,1.9,6.71,1.9a7.74,7.74,0,0,0,4.7-1.28A4.25,4.25,0,0,0,272.1,139.81Z"/><path class="cls-5" d="M302.25,136.16V153h-12V103.28h19.86a23.17,23.17,0,0,1,10.1,2.1,15.87,15.87,0,0,1,6.8,6,16.31,16.31,0,0,1,2.41,8.8,14.43,14.43,0,0,1-5.21,11.64q-5.22,4.35-14.31,4.36Zm0-9.27h7.86a7.42,7.42,0,0,0,5.31-1.74,6.47,6.47,0,0,0,1.83-4.92,8,8,0,0,0-1.88-5.57,6.64,6.64,0,0,0-5.13-2.12h-8Z"/><path class="cls-5" d="M333.38,134.21a21.76,21.76,0,0,1,2.16-9.86,15.31,15.31,0,0,1,6.18-6.65,18.64,18.64,0,0,1,9.47-2.32q8.31,0,13.09,5.14t4.79,14v.41q0,8.64-4.81,13.72t-13,5.07q-7.89,0-12.68-4.73t-5.16-12.83Zm11.52.72q0,5.12,1.61,7.52a5.35,5.35,0,0,0,4.75,2.39q6.15,0,6.29-9.47v-1.16q0-9.95-6.36-10-5.78,0-6.25,8.58Z"/><path class="cls-5" d="M408.68,153H374v-7.52l16-16.81q5.91-6.74,5.91-10.7a7.43,7.43,0,0,0-1.4-4.89,5,5,0,0,0-4.07-1.67,5.07,5.07,0,0,0-4.27,2.23,9.25,9.25,0,0,0-1.64,5.59H372.93a16.33,16.33,0,0,1,2.29-8.46,16.07,16.07,0,0,1,6.36-6.06,18.85,18.85,0,0,1,9.09-2.19c5.37,0,9.52,1.24,12.42,3.72s4.36,6,4.36,10.7a15.76,15.76,0,0,1-1.09,5.73,25.56,25.56,0,0,1-3.4,5.84,86,86,0,0,1-7.44,8.19l-6.42,7.41h19.58Z"/><path class="cls-5" d="M414.59,106.52a5.16,5.16,0,0,1,1.78-4,7.57,7.57,0,0,1,9.23,0,5.46,5.46,0,0,1,0,8.07,7.57,7.57,0,0,1-9.23,0A5.18,5.18,0,0,1,414.59,106.52ZM426.83,153H415.28v-37h11.55Z"/><path class="cls-5" d="M493.48,153H481.55V132.26H463.88V153h-12V103.28h12V123h17.67V103.28h11.93Z"/><path class="cls-5" d="M500.45,106.52a5.12,5.12,0,0,1,1.78-4,7.57,7.57,0,0,1,9.23,0,5.46,5.46,0,0,1,0,8.07,7.57,7.57,0,0,1-9.23,0A5.14,5.14,0,0,1,500.45,106.52ZM512.69,153H501.14v-37h11.55Z"/><path class="cls-5" d="M518.43,134.28a25,25,0,0,1,1.85-9.91,14.76,14.76,0,0,1,5.3-6.65,14,14,0,0,1,8-2.34,11.08,11.08,0,0,1,9,3.89l.41-3.21H553.5v35.58a15.61,15.61,0,0,1-2.27,8.49,14.6,14.6,0,0,1-6.58,5.54,24.15,24.15,0,0,1-10,1.93,20.79,20.79,0,0,1-7.88-1.54,14.07,14.07,0,0,1-5.83-4l4.82-6.76a10.56,10.56,0,0,0,8.48,3.79q7.65,0,7.65-7.86v-1.16a10.8,10.8,0,0,1-8.37,3.65,13.37,13.37,0,0,1-10.94-5.17q-4.17-5.19-4.17-13.86ZM530,135a13.16,13.16,0,0,0,1.71,7.2,5.39,5.39,0,0,0,4.79,2.65,6.1,6.1,0,0,0,5.43-2.5V126.79a6,6,0,0,0-5.36-2.53,5.43,5.43,0,0,0-4.82,2.75C530.57,128.85,530,131.51,530,135Z"/><path class="cls-5" d="M571.31,120a11.53,11.53,0,0,1,9.43-4.64q6.12,0,9.23,3.62t3.18,10.7V153H581.6V130a6.48,6.48,0,0,0-1.2-4.32c-.8-.93-2.15-1.39-4.07-1.39q-3.55,0-5,2.26V153H559.79v-52.5h11.52Z"/><path class="cls-5" d="M618.58,135.44h-6.5V153h-12V103.28h19.58q8.85,0,13.84,3.92t5,11.1a16.14,16.14,0,0,1-2.1,8.6,14.85,14.85,0,0,1-6.58,5.53l10.39,20.1V153H627.36Zm-6.5-9.23h7.59a6.82,6.82,0,0,0,5.15-1.8,7,7,0,0,0,1.72-5,7,7,0,0,0-1.74-5,6.76,6.76,0,0,0-5.13-1.84h-7.59Z"/><path class="cls-5" d="M663.11,153.72q-8.5,0-13.77-5.07t-5.26-13.21v-1a22.71,22.71,0,0,1,2.1-10,15.37,15.37,0,0,1,6.13-6.72,18.56,18.56,0,0,1,9.57-2.37q7.8,0,12.31,4.83t4.51,13.49v4.47H655.8a8.27,8.27,0,0,0,2.7,4.89,8,8,0,0,0,5.4,1.78,10.38,10.38,0,0,0,8.55-3.83l5.26,6.22a14.74,14.74,0,0,1-6.1,4.73A20.54,20.54,0,0,1,663.11,153.72Zm-1.29-29.46q-5.07,0-6,6.7h11.62v-.89a5.7,5.7,0,0,0-1.4-4.29A5.59,5.59,0,0,0,661.82,124.26Z"/><path class="cls-5" d="M702.69,142.65a2.66,2.66,0,0,0-1.53-2.36,23.79,23.79,0,0,0-5.85-1.84,26.64,26.64,0,0,1-7.11-2.52,11.82,11.82,0,0,1-4.27-3.77,9,9,0,0,1-1.47-5.1,10.23,10.23,0,0,1,4.2-8.39c2.81-2.2,6.47-3.29,11-3.29,4.88,0,8.79,1.1,11.76,3.31a10.38,10.38,0,0,1,4.44,8.72H702.32c0-3-1.56-4.45-4.68-4.45a4.67,4.67,0,0,0-3,1,3.12,3.12,0,0,0-1.23,2.51,2.86,2.86,0,0,0,1.51,2.5,14.12,14.12,0,0,0,4.8,1.57,41.21,41.21,0,0,1,5.79,1.47q8.34,2.88,8.34,10.29a9.7,9.7,0,0,1-4.49,8.24q-4.5,3.18-11.64,3.17a20.29,20.29,0,0,1-8.48-1.7,14.2,14.2,0,0,1-5.81-4.65,10.52,10.52,0,0,1-2.08-6.19h10.76a4.46,4.46,0,0,0,1.71,3.74A7,7,0,0,0,698,146.1a5.54,5.54,0,0,0,3.54-.95A3.08,3.08,0,0,0,702.69,142.65Z"/><path class="cls-5" d="M776.18,103.28v32.57a18.76,18.76,0,0,1-2.36,9.59,15.31,15.31,0,0,1-6.77,6.17,23.83,23.83,0,0,1-10.42,2.11q-9.09,0-14.32-4.71T737,136.09V103.28H749v33.05q.21,8.16,7.59,8.17a7.38,7.38,0,0,0,5.64-2.05q1.9-2.05,1.91-6.67v-32.5Z"/><path class="cls-5" d="M796.45,153h-12V103.28h12Z"/></g></g></svg>