<svg xmlns="http://www.w3.org/2000/svg" xmlns:xlink="http://www.w3.org/1999/xlink" viewBox="0 0 908 188"><defs><style>.cls-1{opacity:0.51;}.cls-2{opacity:0.65;fill:url(#linear-gradient);}.cls-3{fill:#0c1926;opacity:0.82;}.cls-4{fill:#8ec4e0;}.cls-5{fill:#f2f2f2;stroke:#000;stroke-miterlimit:10;stroke-width:2px;}</style><linearGradient id="linear-gradient" x1="8" y1="94" x2="900" y2="94" gradientUnits="userSpaceOnUse"><stop offset="0" stop-color="#1c5776"/><stop offset="1" stop-color="#2a88b6"/></linearGradient></defs><g id="Layer_2" data-name="Layer 2"><g id="Simply_New_Rodin" data-name="Simply New Rodin"><path class="cls-1" d="M861,0H64.2L8.09,42.87V145.13L64.2,188H861l55.07-42.92V42.92Zm51.07,143.13L859.64,184H65.55L12.09,143.15V44.85L65.55,4H859.64l52.45,40.87Z" transform="translate(-8.09)"/><polygon class="cls-2" points="58.82 180 8 141.18 8 46.83 58.82 8 850.18 8 900 46.83 900 141.18 850.18 180 58.82 180"/><path class="cls-3" d="M858.27,8H66.9L16.09,46.83v94.34L66.9,180H858.27l49.82-38.83V46.83Zm45.82,131.22L856.89,176H68.26L20.09,139.2V48.8L68.26,12H856.89l47.2,36.78Z" transform="translate(-8.09)"/><path class="cls-4" d="M859.45,4H65.72L12.09,44.65v98.7L65.72,184H859.45l52.64-40.65V44.65Zm48.64,137.17L858.27,180H66.9L16.09,141.17V46.83L66.9,8H858.27l49.82,38.83Z" transform="translate(-8.09)"/><path class="cls-5" d="M131.86,84.88c0,1.17-.05,2.25-.14,3.26a19.29,19.29,0,0,1-.49,2.9,16.57,16.57,0,0,1-2.62,5.71,11.88,11.88,0,0,1-3.82,3.29,14.72,14.72,0,0,1-4.79,1.54,40.52,40.52,0,0,1-5.71.38H92.59v21.21H82.72V66.33H115a36.61,36.61,0,0,1,4.73.32,17.55,17.55,0,0,1,4.55,1.22,13.28,13.28,0,0,1,3.88,2.56,10.31,10.31,0,0,1,2.66,4.37,18.23,18.23,0,0,1,.77,3.78,38.4,38.4,0,0,1,.28,4.55ZM92.59,75.22V93.07h20.23a26.86,26.86,0,0,0,2.77-.14,9.31,9.31,0,0,0,2.38-.56,5.87,5.87,0,0,0,1.92-1.22,5,5,0,0,0,1.26-2.21,8.7,8.7,0,0,0,.46-2.1c.07-.74.12-1.49.17-2.24v-.84c0-.79,0-1.63-.1-2.52a9.07,9.07,0,0,0-.46-2.31A4.39,4.39,0,0,0,120.14,77a4.78,4.78,0,0,0-1.79-1.12,9.53,9.53,0,0,0-2.31-.53,25.65,25.65,0,0,0-2.73-.14Z" transform="translate(-8.09)"/><path class="cls-5" d="M188.77,101.68c.09.7.18,1.46.25,2.28s.1,1.66.1,2.55c0,1.17-.05,2.31-.14,3.43a17.69,17.69,0,0,1-.49,3,11.69,11.69,0,0,1-4.41,6.79,19.5,19.5,0,0,1-9.31,3.29c-1.73.23-3.37.4-4.93.49s-3.24.14-5,.14h-1.54c-1.73,0-3.55,0-5.46-.14a51.69,51.69,0,0,1-5.18-.49q-7.22-1-10.64-4.44t-3.64-10.19c-.05-.65-.07-1.3-.07-2v-2.17h10.29v3.08a8,8,0,0,0,.7,3.33,5.1,5.1,0,0,0,1.65,1.92,7.43,7.43,0,0,0,2.2,1.05,19.4,19.4,0,0,0,2.45.56l1.54.18c.65.07,1.37.11,2.14.14s1.54,0,2.31.1,1.43.07,2,.07H165c1.26,0,2.46,0,3.61-.1s2.29-.2,3.46-.39a10.48,10.48,0,0,0,4.45-1.47,6,6,0,0,0,2.2-3,10.66,10.66,0,0,0,.42-3.29c0-.51,0-1-.07-1.54a9.81,9.81,0,0,0-.21-1.33,5.7,5.7,0,0,0-2-3.08,9.27,9.27,0,0,0-4.55-1.61c-1.31-.19-2.92-.37-4.83-.56s-3.86-.36-5.84-.52-3.92-.34-5.81-.53L151,96.78a18.14,18.14,0,0,1-8.47-3,10.43,10.43,0,0,1-3.85-7.11c-.09-.65-.17-1.38-.24-2.17s-.11-1.61-.11-2.45,0-2,.14-3,.21-1.91.35-2.7a12.15,12.15,0,0,1,1.68-4.34A11.7,11.7,0,0,1,143.45,69a14,14,0,0,1,3.92-2,26.94,26.94,0,0,1,4.72-1.09c.79-.14,1.65-.24,2.56-.31s1.85-.13,2.83-.18,2-.08,2.91-.1,1.83,0,2.62,0h1.82c1.49,0,3,0,4.52.11s2.83.17,4,.31q6.16.78,9.52,3.61A12.47,12.47,0,0,1,187,77.39c.09.89.16,1.83.21,2.84s.07,2.08.07,3.25h-10V81.14a3.57,3.57,0,0,0-.07-.74,6.28,6.28,0,0,0-1.43-3.57,8,8,0,0,0-4-2,20,20,0,0,0-3.29-.52q-2-.18-4.2-.18h-1c-1.54,0-3.1,0-4.69.14a34.09,34.09,0,0,0-4.55.56,13.52,13.52,0,0,0-3.64,1.23,4,4,0,0,0-2,2.76,9.83,9.83,0,0,0-.21,1.3,13.33,13.33,0,0,0-.07,1.36c0,.51,0,1,0,1.37a11.43,11.43,0,0,0,.17,1.36,3.82,3.82,0,0,0,2.21,3,17.61,17.61,0,0,0,4.37,1q1.61.21,4,.42l5,.42c1.75.14,3.52.29,5.32.46s3.46.36,5,.59a40.85,40.85,0,0,1,5.57,1.12,14.13,14.13,0,0,1,4.34,2,10.9,10.9,0,0,1,3,3.36A14.6,14.6,0,0,1,188.77,101.68Z" transform="translate(-8.09)"/><path class="cls-5" d="M246.1,84.88c0,1.17,0,2.25-.14,3.26a19.29,19.29,0,0,1-.49,2.9,16.57,16.57,0,0,1-2.62,5.71A11.88,11.88,0,0,1,239,100a14.72,14.72,0,0,1-4.79,1.54,40.52,40.52,0,0,1-5.71.38h-21.7v21.21H197V66.33h32.27a36.61,36.61,0,0,1,4.73.32,17.66,17.66,0,0,1,4.55,1.22,13.28,13.28,0,0,1,3.88,2.56,10.31,10.31,0,0,1,2.66,4.37,18.23,18.23,0,0,1,.77,3.78,38.4,38.4,0,0,1,.28,4.55Zm-39.27-9.66V93.07h20.23a26.86,26.86,0,0,0,2.77-.14,9.31,9.31,0,0,0,2.38-.56,5.87,5.87,0,0,0,1.92-1.22,5,5,0,0,0,1.26-2.21,8.7,8.7,0,0,0,.46-2.1c.07-.74.12-1.49.17-2.24v-.84c0-.79,0-1.63-.1-2.52a9.07,9.07,0,0,0-.46-2.31A4.39,4.39,0,0,0,234.38,77a4.78,4.78,0,0,0-1.79-1.12,9.53,9.53,0,0,0-2.31-.53,25.65,25.65,0,0,0-2.73-.14Z" transform="translate(-8.09)"/><path class="cls-5" d="M296,100.91c0,1.63,0,3.27-.07,4.9a41.65,41.65,0,0,1-.35,4.48,23.2,23.2,0,0,1-1.36,5.78,10.75,10.75,0,0,1-2.59,3.88,11,11,0,0,1-4,2.35,26.38,26.38,0,0,1-5.64,1.15c-.93.09-2,.16-3.29.21s-2.57.07-3.92.07-2.82,0-4.13,0-2.47-.09-3.5-.18a24.84,24.84,0,0,1-5.56-.94,11.65,11.65,0,0,1-4.17-2.21,10.64,10.64,0,0,1-2.83-3.85,19.83,19.83,0,0,1-1.51-6,40.6,40.6,0,0,1-.38-4.27c-.07-1.54-.13-3.12-.18-4.76s0-3.13.11-4.62.15-2.87.24-4.13A22.79,22.79,0,0,1,254.5,86a11.4,11.4,0,0,1,3.08-4.27,11.2,11.2,0,0,1,4.48-2.24,27.47,27.47,0,0,1,5.74-.81c1.07-.09,2.21-.14,3.39-.14h7a26.32,26.32,0,0,1,2.8.14,34.23,34.23,0,0,1,5.15.74,12.32,12.32,0,0,1,4,1.64A9.36,9.36,0,0,1,293,84a15.22,15.22,0,0,1,1.75,4.62c.37,1.87.67,3.89.88,6.06S296,98.9,296,100.91Zm-20.09,14.84c.89,0,1.77,0,2.66,0a12.58,12.58,0,0,0,2.52-.32,7.08,7.08,0,0,0,3.88-1.89,7.3,7.3,0,0,0,1.58-4.13,29.18,29.18,0,0,0,.35-3.81c0-1.43.07-2.88.07-4.38s0-2.75-.1-4.06-.18-2.49-.32-3.57c-.33-2.47-1-4.19-1.92-5.14a7.47,7.47,0,0,0-4.73-1.72c-1.4-.14-2.82-.21-4.27-.21-.42,0-.84,0-1.26,0s-.84,0-1.26,0c-.89,0-1.75.08-2.59.11s-1.68.08-2.52.17a6.65,6.65,0,0,0-4.48,2.24,10.58,10.58,0,0,0-1.68,5.39c-.09,1-.15,2.08-.17,3.29s0,2.45,0,3.71,0,2.68.1,4,.18,2.48.32,3.5a13.36,13.36,0,0,0,.77,3.08,5.15,5.15,0,0,0,1.33,1.93,5.21,5.21,0,0,0,2.14,1.08,21.94,21.94,0,0,0,3,.56,40.07,40.07,0,0,0,4.13.21l1.19,0C275.08,115.76,275.5,115.75,275.92,115.75Z" transform="translate(-8.09)"/><path class="cls-5" d="M352.5,82.78c0,1.07,0,2.1-.11,3.08a18.67,18.67,0,0,1-.45,2.94A12.39,12.39,0,0,1,347,96.61a25.51,25.51,0,0,1-9.9,3.88l-1.58.28-2.87.53-3.46.66-3.43.67-2.77.52c-.77.14-1.24.24-1.43.28a14,14,0,0,0-5.25,2.31,6.6,6.6,0,0,0-2.52,4.2c-.1.61-.16,1.13-.21,1.58a15.12,15.12,0,0,0-.07,1.64l38.57-.21v9.31H303.36q0-.56,0-1.68c0-.75.06-1.54.11-2.38s.08-1.63.1-2.38,0-1.3,0-1.68a46.27,46.27,0,0,1,.84-6.68,15.75,15.75,0,0,1,2.17-5.43,14.5,14.5,0,0,1,4.13-4.13,21.37,21.37,0,0,1,6.65-2.8c.7-.19,1.72-.43,3.08-.73l4.41-1c1.59-.35,3.18-.69,4.79-1s3-.63,4.17-.91a18.66,18.66,0,0,0,5.42-2,5.73,5.73,0,0,0,2.84-3.85,16,16,0,0,0,.35-3.36,16.63,16.63,0,0,0-.21-2.73,4.88,4.88,0,0,0-2-3.46,10.55,10.55,0,0,0-4.93-1.51q-1.19-.13-2.91-.24c-1.14-.07-2.29-.11-3.46-.11h-1.12a33.3,33.3,0,0,0-7.14.77,15.05,15.05,0,0,0-2.84,1,6.33,6.33,0,0,0-1.85,1.3,4.71,4.71,0,0,0-1,1.71,9.87,9.87,0,0,0-.49,2.17c-.09.65-.16,1.4-.21,2.24s-.07,1.61-.07,2.31H303.85c0-.88.08-1.71.1-2.48s.06-1.46.11-2.07q.42-7.14,3.78-10.67t10.29-4.52c1.59-.23,3.16-.41,4.72-.52s3.17-.18,4.8-.18h2c1.58,0,3.14,0,4.65.11s2.84.15,4,.24a24.58,24.58,0,0,1,4.37.81A16,16,0,0,1,346.51,68a10.68,10.68,0,0,1,5,6.72c.28,1.08.51,2.18.7,3.33a22.63,22.63,0,0,1,.28,3.53Z" transform="translate(-8.09)"/><path class="cls-5" d="M360.9,75.15V66.4h11.41v8.75Zm10.57,47.25h-9.59V80.47h9.59Z" transform="translate(-8.09)"/><path class="cls-5" d="M447,122.4V97.62H415.64V122.4h-10V66.33h10V88.59H447V66.33h10v56.14Z" transform="translate(-8.09)"/><path class="cls-5" d="M466.39,75.15V66.4H477.8v8.75ZM477,122.4h-9.59V80.47H477Z" transform="translate(-8.09)"/><path class="cls-5" d="M527.88,86.11A3.33,3.33,0,0,0,526,87.4a2.31,2.31,0,0,1,.28.84,11.28,11.28,0,0,1,.31,1.72,17.37,17.37,0,0,1,.11,1.92c0,.56,0,1.1-.07,1.61s-.12,1-.21,1.47c-.19.89-.41,1.77-.67,2.66a8.76,8.76,0,0,1-1,2.31,7.45,7.45,0,0,1-4.1,3.08,29.74,29.74,0,0,1-5.42,1.19c-1.12.14-2.43.24-3.92.28s-3,.07-4.55.07h-3a23.16,23.16,0,0,1-2.62-.14c-.89-.09-1.53-.15-1.93-.17a7.2,7.2,0,0,1-1.36-.25,10.27,10.27,0,0,0-2,1.05,3.76,3.76,0,0,0-1.4,1.47.91.91,0,0,0-.07.42,1.15,1.15,0,0,0,.07.49c.14.47.56.77,1.26.91s1.37.26,2,.35q1.26.13,3.6.18c1.56,0,3.3.07,5.22.14s3.89.16,6,.28,4,.29,5.74.52a32.46,32.46,0,0,1,3.78.74,13,13,0,0,1,3.11,1.22,9.09,9.09,0,0,1,2.38,1.93,7.4,7.4,0,0,1,1.51,2.76,10.49,10.49,0,0,1,.49,2.31,27.11,27.11,0,0,1,.14,2.73,22.45,22.45,0,0,1-.18,2.87,11.79,11.79,0,0,1-.52,2.38,8.31,8.31,0,0,1-2,3,11,11,0,0,1-2.94,2,17.24,17.24,0,0,1-3.53,1.19,34.48,34.48,0,0,1-3.92.63c-1.59.19-3.24.33-4.94.42s-3.44.14-5.21.14-3.52,0-5.22-.14-3.35-.23-4.93-.42a27.19,27.19,0,0,1-3.19-.49,16.58,16.58,0,0,1-3.18-1,11.58,11.58,0,0,1-2.8-1.72,8.6,8.6,0,0,1-2.1-2.66,7.46,7.46,0,0,1-.81-3.08c-.07-1.17-.1-2.17-.1-3a24.71,24.71,0,0,1,.14-2.87,9,9,0,0,1,.7-2.59,7.53,7.53,0,0,1,1.22-2,7.77,7.77,0,0,1,2.42-1.93,2.44,2.44,0,0,1-1.37-1.36,8.21,8.21,0,0,1-.52-1.72,3.33,3.33,0,0,1-.07-.7v-1.33a2.15,2.15,0,0,1,.07-.56,4.25,4.25,0,0,1,.56-1.78,8.86,8.86,0,0,1,1.26-1.51c.37-.37.77-.76,1.19-1.15a6.51,6.51,0,0,1,1.26-1A5.54,5.54,0,0,1,488,99a8.16,8.16,0,0,1-1.54-3.5,21.68,21.68,0,0,1-.21-2.2c0-.82-.07-1.48-.07-2s0-1.21.1-2.1.15-1.66.25-2.31a7.83,7.83,0,0,1,1.5-3.71,8.76,8.76,0,0,1,2.77-2.34,13,13,0,0,1,3.53-1.3,36.23,36.23,0,0,1,3.89-.63c1.26-.09,2.63-.15,4.13-.17s2.82,0,4,0c1.35,0,2.8,0,4.34.07s3,.14,4.27.28a25.48,25.48,0,0,1,3.74.63,7.13,7.13,0,0,1,2.63,1.19,8.87,8.87,0,0,1,2.31-1.5,17.81,17.81,0,0,1,2.87-1.09,3,3,0,0,1,.63-.14L528.2,78c.37,0,.75-.08,1.15-.1s.74,0,1,0h.35v7.84A11.1,11.1,0,0,0,527.88,86.11ZM497.47,116a5,5,0,0,0-2.66.88,4.92,4.92,0,0,0-2,2.06,4.71,4.71,0,0,0-.28,1.12,7.92,7.92,0,0,0-.07,1q0,.42,0,1a3.58,3.58,0,0,0,.18,1,2.87,2.87,0,0,0,.77,1.4,4.11,4.11,0,0,0,1.29.88,8.57,8.57,0,0,0,1.58.49,16.17,16.17,0,0,0,1.68.24c1.16.09,2.35.18,3.57.25s2.42.1,3.64.1l1.61,0c.56,0,1.09,0,1.61,0l3.57,0a33.47,33.47,0,0,0,3.5-.25,11.7,11.7,0,0,0,2-.49,5,5,0,0,0,1.82-1,3.8,3.8,0,0,0,1-1.43,4.72,4.72,0,0,0,.35-1.72v-.21a6.17,6.17,0,0,0-.21-1.57,3,3,0,0,0-2.1-2.28,12.62,12.62,0,0,0-1.75-.42,64,64,0,0,0-9.77-.8q-5,0-9.27-.18ZM517.7,89.29a4.88,4.88,0,0,0-1.19-1.89,6,6,0,0,0-3.43-1.12c-.89-.09-1.82-.16-2.8-.21s-2-.07-3.08-.07h-1.4c-1,0-1.89,0-2.73.07s-1.73.12-2.66.21a12.16,12.16,0,0,0-3.47.77,3.33,3.33,0,0,0-2.13,2.24,7.43,7.43,0,0,0-.21,1.33c-.05.52-.07,1-.07,1.54a5.88,5.88,0,0,0,.56,2.59,3.12,3.12,0,0,0,2,1.65,14.36,14.36,0,0,0,3.19.59,20.65,20.65,0,0,0,2.48.14h2.77c1.35,0,2.7,0,4.06-.07s2.54-.12,3.57-.21a7.53,7.53,0,0,0,3-.84,3.39,3.39,0,0,0,1.47-2,10.13,10.13,0,0,0,.21-1.19c0-.42.07-.89.07-1.4A9.44,9.44,0,0,0,517.7,89.29Z" transform="translate(-8.09)"/><path class="cls-5" d="M568.31,122.4V95.1a15.71,15.71,0,0,0-.11-1.71,9.17,9.17,0,0,0-.42-1.89,5.94,5.94,0,0,0-1-1.79A4.49,4.49,0,0,0,565,88.38a10.27,10.27,0,0,0-2.73-.8,27.1,27.1,0,0,0-3.15-.32c-1.08,0-2.15,0-3.23.11a20.3,20.3,0,0,0-3.14.45A7.25,7.25,0,0,0,548,90.73a9.65,9.65,0,0,0-1.29,5.21V122.4h-9.52V66.33h9.38V84a6.56,6.56,0,0,1,2.23-2.83,9,9,0,0,1,3.86-1.65,27.22,27.22,0,0,1,3.57-.49c1.26-.09,2.49-.14,3.71-.14h1a39,39,0,0,1,5.63.53,17.65,17.65,0,0,1,4.73,1.43,9.6,9.6,0,0,1,5,4.9,18.75,18.75,0,0,1,1.41,7.56v29.12Z" transform="translate(-8.09)"/><path class="cls-5" d="M629.27,123.17c-.27-1.26-.58-2.69-.91-4.3s-.67-3.26-1-4.94-.8-3.3-1.26-4.86a30.06,30.06,0,0,0-1.55-4.17,9.51,9.51,0,0,0-1.5-2.27,6.37,6.37,0,0,0-1.75-1.37,6.69,6.69,0,0,0-2.07-.66,15.35,15.35,0,0,0-2.44-.18H597.5v22.75h-9.94V66.33h32.27a37.55,37.55,0,0,1,4.76.32,18.51,18.51,0,0,1,4.65,1.22,12.85,12.85,0,0,1,4,2.56,9.31,9.31,0,0,1,2.53,4.37,23.71,23.71,0,0,1,.7,3.33,30.5,30.5,0,0,1,.27,4.23c0,1.36,0,2.65-.1,3.89a15.07,15.07,0,0,1-.59,3.46,11.21,11.21,0,0,1-.88,2.31,12,12,0,0,1-1.47,2.24,10.3,10.3,0,0,1-2,1.86,8.79,8.79,0,0,1-2.7,1.22,9.34,9.34,0,0,1,2,1,8.29,8.29,0,0,1,3,3.22,22.67,22.67,0,0,1,1.72,4.62c.32,1.26.67,2.66,1,4.2s.74,3.09,1.09,4.66.69,3,1,4.48.59,2.64.78,3.67ZM597.5,75.22V91.53h20c.94,0,1.84,0,2.7-.1a10.75,10.75,0,0,0,2.45-.49,5.75,5.75,0,0,0,2.07-1.23,5.49,5.49,0,0,0,1.4-2.31,7.57,7.57,0,0,0,.45-1.85c.07-.63.13-1.28.17-1.93v-1c0-.65,0-1.29-.07-1.92a6.37,6.37,0,0,0-.27-1.58,4.58,4.58,0,0,0-3.08-3.25,18.64,18.64,0,0,0-5.33-.67Z" transform="translate(-8.09)"/><path class="cls-5" d="M686.82,109.35c-.05.44-.12.89-.22,1.36a20.28,20.28,0,0,1-1.36,5.43,10.15,10.15,0,0,1-2.49,3.6A11,11,0,0,1,679,122a24.06,24.06,0,0,1-5.25,1.15c-1.13.14-2.26.23-3.4.28s-2.32.07-3.54.07H664c-1.64,0-3.26-.13-4.87-.24a32.74,32.74,0,0,1-4.65-.67,11.94,11.94,0,0,1-7-3.71c-1.61-1.86-2.67-4.67-3.18-8.4a40.73,40.73,0,0,1-.39-4.2c-.07-1.54-.13-3.13-.18-4.76s0-3.07.11-4.58.15-2.89.24-4.1a21.62,21.62,0,0,1,1.62-6.72A10.84,10.84,0,0,1,648.81,82a12.16,12.16,0,0,1,4.4-2.21,28.61,28.61,0,0,1,5.54-.91c1-.09,2-.16,3-.21s2-.07,3.12-.07c.51,0,1,0,1.53,0s1,0,1.55,0l3.11.14q1.5.08,2.76.21a20.51,20.51,0,0,1,5.54,1.4,12.89,12.89,0,0,1,3.7,2.38A9.33,9.33,0,0,1,685.34,86a15.53,15.53,0,0,1,1.06,4.09c.09.93.16,2,.2,3.22s.07,2.45.07,3.71,0,2.23,0,3.33,0,2.11,0,3H653c0,.8,0,1.69,0,2.7a24.47,24.47,0,0,0,.24,2.9,14.57,14.57,0,0,0,.74,2.91,4.4,4.4,0,0,0,1.3,1.85,5.39,5.39,0,0,0,2,1,14.94,14.94,0,0,0,2.94.49,41.06,41.06,0,0,0,4.21.21q.63,0,1.26,0c.42,0,.86,0,1.33,0,.84,0,1.75,0,2.73-.07a14.67,14.67,0,0,0,2.65-.35,5.36,5.36,0,0,0,4.9-5,5.3,5.3,0,0,0,.18-1.08c0-.35.06-.72.11-1.09h9.23C686.88,108.43,686.86,108.9,686.82,109.35Zm-9.14-14.21q0-.6,0-1.23c0-.33,0-.65,0-1s-.06-.65-.1-1A6.28,6.28,0,0,0,676,88.52c-.88-1-2.4-1.63-4.54-1.82a19.4,19.4,0,0,0-2.11-.17c-.74,0-1.51,0-2.3,0-.47,0-.93,0-1.37,0l-1.29,0c-.89,0-1.81,0-2.77.07s-1.83.12-2.63.21a6.58,6.58,0,0,0-4.3,2.14,9.53,9.53,0,0,0-1.57,5.14,6,6,0,0,0-.07,1v1.15h24.57C677.65,95.92,677.66,95.53,677.68,95.14Z" transform="translate(-8.09)"/><path class="cls-5" d="M733.09,110.5c0,.89,0,1.75-.11,2.59a9.55,9.55,0,0,1-.46,2.31,8.85,8.85,0,0,1-3.57,5.29,17,17,0,0,1-7,2.34,33,33,0,0,1-4.23.46c-1.52.07-3.09.1-4.72.1-1.36,0-2.69,0-4,0s-2.49-.09-3.57-.18a24.37,24.37,0,0,1-6.47-1.33,9.78,9.78,0,0,1-4.06-2.73,10,10,0,0,1-2.1-4.34,28,28,0,0,1-.6-6.23h9.24a16.67,16.67,0,0,0,.18,2.56,4.88,4.88,0,0,0,.77,2,4.77,4.77,0,0,0,1.68,1.47,8.11,8.11,0,0,0,2.91.8c1.21.14,2.39.22,3.53.25l2.76,0,1.48,0c.56,0,1.11-.06,1.67-.11l1.58-.14c.49,0,.87-.09,1.16-.14a7,7,0,0,0,3.25-1.12,4.73,4.73,0,0,0,1.43-2,2.71,2.71,0,0,0,.18-.91c0-.37,0-.75,0-1.12s0-.71,0-1a7.46,7.46,0,0,0-.1-.81,3.77,3.77,0,0,0-1.33-2.24,7.19,7.19,0,0,0-3.3-1.19c-1.12-.14-2.41-.28-3.88-.42l-4.48-.42-4.41-.42c-1.43-.14-2.65-.28-3.68-.42a14,14,0,0,1-6.72-2.73,8.83,8.83,0,0,1-2.94-5.25,18,18,0,0,1-.27-3.36V91c0-.74.1-1.47.17-2.17a12.33,12.33,0,0,1,.38-2,8.37,8.37,0,0,1,1.69-3.46A10.17,10.17,0,0,1,698,80.93a14.92,14.92,0,0,1,3.64-1.47,26.54,26.54,0,0,1,4.09-.74c1.13-.09,2.26-.16,3.4-.21s2.3-.07,3.47-.07a59.22,59.22,0,0,1,7.2.42,18.94,18.94,0,0,1,6.9,1.89,9.31,9.31,0,0,1,3.53,3.36,8.84,8.84,0,0,1,1.09,3.22,44.78,44.78,0,0,1,.31,5h-9.1v-.49a6.26,6.26,0,0,0-1.11-3.64,5.56,5.56,0,0,0-3.65-1.54c-.74-.09-1.57-.17-2.48-.24s-1.93-.11-3-.11c-2,0-3.72.07-5.12.21a9.85,9.85,0,0,0-3.39,1,3.28,3.28,0,0,0-1.64,2.06,7.05,7.05,0,0,0-.08,3.71q.5,2.24,4,2.66,1.47.21,3.42.39l4.14.35,4.27.35c1.4.11,2.66.24,3.77.38a30.58,30.58,0,0,1,3.92.77,10.76,10.76,0,0,1,3.26,1.47,9.08,9.08,0,0,1,2.45,2.49,10,10,0,0,1,1.44,3.81A23,23,0,0,1,733.09,110.5Z" transform="translate(-8.09)"/><path class="cls-5" d="M815.75,112.25a15.68,15.68,0,0,1-3.43,5.71,16.44,16.44,0,0,1-5.49,3.74,30.28,30.28,0,0,1-7.39,2c-1.4.23-2.8.4-4.2.49s-2.87.14-4.41.14-2.91,0-4.27-.14-2.7-.21-4.06-.35q-9.59-1.19-13.79-6.09t-4.2-13.3V66.33h10.36v37q0,5,2,7.77t7.28,3.57a46.88,46.88,0,0,0,6.58.42l3.64-.14a17.49,17.49,0,0,0,3.22-.42c3.18-.65,5.46-2,6.86-3.92a13,13,0,0,0,2.1-7.7V66.33h10.36v38.15A23.07,23.07,0,0,1,815.75,112.25Z" transform="translate(-8.09)"/><path class="cls-5" d="M827,122.4V66.33H837.1v56.14Z" transform="translate(-8.09)"/></g></g></svg>
