<svg xmlns="http://www.w3.org/2000/svg" xmlns:xlink="http://www.w3.org/1999/xlink" viewBox="0 0 908 188"><defs><style>.cls-1{opacity:0.51;}.cls-2{opacity:0.65;fill:url(#linear-gradient);}.cls-3{fill:#0c1926;opacity:0.82;}.cls-4{fill:#8ec4e0;}.cls-5{filter:url(#AI_Shadow_1);}.cls-6{fill:#f2f2f2;stroke:#000;stroke-miterlimit:10;stroke-width:2px;}</style><linearGradient id="linear-gradient" x1="8" y1="94" x2="900" y2="94" gradientUnits="userSpaceOnUse"><stop offset="0" stop-color="#1c5776"/><stop offset="1" stop-color="#2a88b6"/></linearGradient><filter id="AI_Shadow_1" name="AI_Shadow_1"><feGaussianBlur result="blur" stdDeviation="2" in="SourceAlpha"/><feOffset result="offsetBlurredAlpha" dx="4" dy="4" in="blur"/><feMerge><feMergeNode in="offsetBlurredAlpha"/><feMergeNode in="SourceGraphic"/></feMerge></filter></defs><g id="Layer_2" data-name="Layer 2"><g id="Simple_Expanded" data-name="Simple Expanded"><path class="cls-1" d="M854.94,0H58.12L2,42.87V145.13L58.12,188H854.94L910,145.08V42.92ZM906,143.13,853.56,184H59.47L6,143.15V44.85L59.47,4H853.56L906,44.87Z" transform="translate(-2)"/><polygon class="cls-2" points="58.82 180 8 141.18 8 46.83 58.82 8 850.18 8 900 46.83 900 141.18 850.18 180 58.82 180"/><path class="cls-3" d="M852.19,8H60.82L10,46.83v94.34L60.82,180H852.19L902,141.17V46.83ZM898,139.22,850.81,176H62.17L14,139.2V48.8L62.17,12H850.81L898,48.78Z" transform="translate(-2)"/><path class="cls-4" d="M853.37,4H59.64L6,44.65v98.7L59.64,184H853.37L906,143.35V44.65ZM902,141.17,852.19,180H60.82L10,141.17V46.83L60.82,8H852.19L902,46.83Z" transform="translate(-2)"/><g class="cls-5"><path class="cls-6" d="M125.78,84.88c0,1.17,0,2.25-.14,3.26a20.64,20.64,0,0,1-.49,2.9,16.57,16.57,0,0,1-2.63,5.71,11.85,11.85,0,0,1-3.81,3.29,14.78,14.78,0,0,1-4.8,1.54,40.37,40.37,0,0,1-5.7.38H86.51v21.21H76.64V66.33h32.27a36.46,36.46,0,0,1,4.72.32,17.44,17.44,0,0,1,4.55,1.22,13.19,13.19,0,0,1,3.89,2.56,10.41,10.41,0,0,1,2.66,4.37,18.91,18.91,0,0,1,.77,3.78,40.64,40.64,0,0,1,.28,4.55ZM86.51,75.22V93.07h20.23a26.52,26.52,0,0,0,2.76-.14,9.12,9.12,0,0,0,2.38-.56,5.81,5.81,0,0,0,1.93-1.22,5,5,0,0,0,1.26-2.21,8.7,8.7,0,0,0,.45-2.1c.07-.74.13-1.49.18-2.24v-.84c0-.79,0-1.63-.11-2.52a9.1,9.1,0,0,0-.45-2.31A4.5,4.5,0,0,0,114.05,77a4.74,4.74,0,0,0-1.78-1.12,9.53,9.53,0,0,0-2.31-.53,25.65,25.65,0,0,0-2.73-.14Z" transform="translate(-2)"/><path class="cls-6" d="M182.69,101.68q.13,1,.24,2.28c.07.81.11,1.66.11,2.55,0,1.17,0,2.31-.14,3.43a18.74,18.74,0,0,1-.49,3,11.69,11.69,0,0,1-4.41,6.79,19.54,19.54,0,0,1-9.31,3.29c-1.73.23-3.37.4-4.94.49s-3.23.14-5,.14h-1.54c-1.73,0-3.55,0-5.46-.14a51.41,51.41,0,0,1-5.18-.49q-7.22-1-10.64-4.44t-3.64-10.19c0-.65-.07-1.3-.07-2v-2.17h10.29v3.08a7.86,7.86,0,0,0,.7,3.33,5.17,5.17,0,0,0,1.64,1.92,7.49,7.49,0,0,0,2.21,1.05,19.4,19.4,0,0,0,2.45.56l1.54.18c.65.07,1.36.11,2.13.14s1.54,0,2.31.1,1.44.07,2,.07H159c1.26,0,2.46,0,3.6-.1a34.75,34.75,0,0,0,3.47-.39,10.38,10.38,0,0,0,4.44-1.47,6,6,0,0,0,2.21-3,10.66,10.66,0,0,0,.42-3.29c0-.51,0-1-.07-1.54a9.81,9.81,0,0,0-.21-1.33,5.7,5.7,0,0,0-2-3.08,9.27,9.27,0,0,0-4.55-1.61c-1.31-.19-2.92-.37-4.83-.56s-3.86-.36-5.85-.52-3.92-.34-5.81-.53L145,96.78a18.1,18.1,0,0,1-8.47-3q-3.09-2.28-3.85-7.11c-.1-.65-.18-1.38-.25-2.17s-.1-1.61-.1-2.45,0-2,.14-3,.21-1.91.35-2.7A11.58,11.58,0,0,1,137.36,69a14.18,14.18,0,0,1,3.92-2A27.05,27.05,0,0,1,146,65.91c.79-.14,1.64-.24,2.55-.31s1.86-.13,2.84-.18,1.95-.08,2.9-.1,1.83,0,2.63,0h1.82c1.49,0,3,0,4.51.11s2.84.17,4,.31q6.15.78,9.52,3.61a12.51,12.51,0,0,1,4.13,8.08c.09.89.16,1.83.21,2.84s.07,2.08.07,3.25h-10V81.14a4.42,4.42,0,0,0-.07-.74,6.28,6.28,0,0,0-1.44-3.57,8,8,0,0,0-3.95-2,20.14,20.14,0,0,0-3.29-.52q-2-.18-4.2-.18h-1c-1.54,0-3.11,0-4.69.14a33.88,33.88,0,0,0-4.55.56,13.4,13.4,0,0,0-3.64,1.23,4,4,0,0,0-2,2.76,7.36,7.36,0,0,0-.21,1.3,13.33,13.33,0,0,0-.07,1.36c0,.51,0,1,0,1.37a11.65,11.65,0,0,0,.18,1.36,3.81,3.81,0,0,0,2.2,3,17.7,17.7,0,0,0,4.38,1c1.07.14,2.39.28,3.95.42l5,.42c1.75.14,3.53.29,5.32.46s3.47.36,5,.59a40.39,40.39,0,0,1,5.56,1.12,13.91,13.91,0,0,1,4.34,2,10.93,10.93,0,0,1,3,3.36A14.6,14.6,0,0,1,182.69,101.68Z" transform="translate(-2)"/><path class="cls-6" d="M240,84.88c0,1.17-.05,2.25-.14,3.26a20.64,20.64,0,0,1-.49,2.9,16.57,16.57,0,0,1-2.63,5.71A11.85,11.85,0,0,1,233,100a14.78,14.78,0,0,1-4.8,1.54,40.37,40.37,0,0,1-5.7.38h-21.7v21.21h-9.87V66.33h32.27a36.46,36.46,0,0,1,4.72.32,17.44,17.44,0,0,1,4.55,1.22,13.19,13.19,0,0,1,3.89,2.56A10.41,10.41,0,0,1,239,74.8a18.91,18.91,0,0,1,.77,3.78,40.64,40.64,0,0,1,.28,4.55Zm-39.27-9.66V93.07H221a26.52,26.52,0,0,0,2.76-.14,9.22,9.22,0,0,0,2.38-.56,5.81,5.81,0,0,0,1.93-1.22,5,5,0,0,0,1.26-2.21,8.7,8.7,0,0,0,.45-2.1c.07-.74.13-1.49.18-2.24v-.84c0-.79,0-1.63-.11-2.52a9.1,9.1,0,0,0-.45-2.31A4.5,4.5,0,0,0,228.29,77a4.74,4.74,0,0,0-1.78-1.12,9.53,9.53,0,0,0-2.31-.53,25.65,25.65,0,0,0-2.73-.14Z" transform="translate(-2)"/><path class="cls-6" d="M289.93,100.91c0,1.63,0,3.27-.07,4.9a44.39,44.39,0,0,1-.35,4.48,23.17,23.17,0,0,1-1.37,5.78,10.62,10.62,0,0,1-2.59,3.88,10.93,10.93,0,0,1-4,2.35,26.15,26.15,0,0,1-5.63,1.15c-.94.09-2,.16-3.29.21s-2.57.07-3.92.07-2.83,0-4.13,0-2.48-.09-3.5-.18a24.93,24.93,0,0,1-5.57-.94,11.6,11.6,0,0,1-4.16-2.21,10.66,10.66,0,0,1-2.84-3.85,20.15,20.15,0,0,1-1.5-6c-.19-1.3-.32-2.73-.39-4.27s-.13-3.12-.17-4.76,0-3.13.1-4.62.15-2.87.25-4.13A22.49,22.49,0,0,1,248.42,86a11.4,11.4,0,0,1,3.08-4.27A11.2,11.2,0,0,1,256,79.46a27.38,27.38,0,0,1,5.74-.81c1.07-.09,2.2-.14,3.39-.14h7a26.46,26.46,0,0,1,2.8.14,34.08,34.08,0,0,1,5.14.74,12.14,12.14,0,0,1,4,1.64A9.28,9.28,0,0,1,286.92,84a15.48,15.48,0,0,1,1.75,4.62q.56,2.8.87,6.06C289.75,96.82,289.88,98.9,289.93,100.91Zm-20.09,14.84,2.66,0a12.77,12.77,0,0,0,2.52-.32,7.08,7.08,0,0,0,3.88-1.89,7.37,7.37,0,0,0,1.58-4.13,31,31,0,0,0,.35-3.81c0-1.43.07-2.88.07-4.38s0-2.75-.11-4.06-.17-2.49-.31-3.57c-.33-2.47-1-4.19-1.93-5.14a7.42,7.42,0,0,0-4.72-1.72c-1.4-.14-2.83-.21-4.27-.21-.42,0-.84,0-1.26,0s-.84,0-1.26,0c-.89,0-1.75.08-2.59.11s-1.68.08-2.52.17a6.62,6.62,0,0,0-4.48,2.24,10.58,10.58,0,0,0-1.68,5.39c-.1,1-.16,2.08-.18,3.29s0,2.45,0,3.71,0,2.68.1,4,.18,2.48.32,3.5a12.87,12.87,0,0,0,.77,3.08,5,5,0,0,0,1.33,1.93,5.23,5.23,0,0,0,2.13,1.08,22.1,22.1,0,0,0,3.05.56,40.07,40.07,0,0,0,4.13.21l1.19,0C269,115.76,269.42,115.75,269.84,115.75Z" transform="translate(-2)"/><path class="cls-6" d="M346.42,82.78c0,1.07,0,2.1-.11,3.08a18.67,18.67,0,0,1-.45,2.94,12.43,12.43,0,0,1-4.94,7.81,25.51,25.51,0,0,1-9.9,3.88l-1.58.28c-.82.14-1.77.32-2.87.53l-3.46.66-3.43.67-2.77.52c-.77.14-1.25.24-1.43.28a14,14,0,0,0-5.25,2.31,6.52,6.52,0,0,0-2.52,4.2c-.1.61-.17,1.13-.21,1.58a15.12,15.12,0,0,0-.07,1.64L346,113v9.31H297.28q0-.56,0-1.68c0-.75.06-1.54.11-2.38s.08-1.63.1-2.38,0-1.3,0-1.68a46.27,46.27,0,0,1,.84-6.68,15.75,15.75,0,0,1,2.17-5.43,14.37,14.37,0,0,1,4.13-4.13,21.27,21.27,0,0,1,6.65-2.8c.7-.19,1.72-.43,3.08-.73s2.82-.63,4.41-1,3.18-.69,4.79-1,3-.63,4.17-.91a18.77,18.77,0,0,0,5.42-2,5.76,5.76,0,0,0,2.84-3.85,16,16,0,0,0,.35-3.36,16.63,16.63,0,0,0-.21-2.73,4.92,4.92,0,0,0-2-3.46,10.59,10.59,0,0,0-4.93-1.51q-1.2-.13-2.91-.24c-1.14-.07-2.3-.11-3.46-.11h-1.12a33.3,33.3,0,0,0-7.14.77,15.05,15.05,0,0,0-2.84,1,6.19,6.19,0,0,0-1.85,1.3,4.71,4.71,0,0,0-1.05,1.71,9.33,9.33,0,0,0-.49,2.17,21.71,21.71,0,0,0-.21,2.24c-.05.84-.07,1.61-.07,2.31H297.77c0-.88.08-1.71.1-2.48s.06-1.46.11-2.07q.42-7.14,3.78-10.67t10.29-4.52c1.58-.23,3.16-.41,4.72-.52s3.16-.18,4.8-.18h2c1.58,0,3.13,0,4.65.11s2.84.15,4,.24a24.58,24.58,0,0,1,4.37.81A16.13,16.13,0,0,1,340.43,68a10.68,10.68,0,0,1,5,6.72c.28,1.08.51,2.18.7,3.33a22.63,22.63,0,0,1,.28,3.53Z" transform="translate(-2)"/><path class="cls-6" d="M354.82,75.15V66.4h11.41v8.75Zm10.57,47.25H355.8V80.47h9.59Z" transform="translate(-2)"/><path class="cls-6" d="M440.91,122.4V97.62H409.55V122.4h-10V66.33h10V88.59h31.36V66.33h10v56.14Z" transform="translate(-2)"/><path class="cls-6" d="M460.3,75.15V66.4h11.41v8.75Zm10.57,47.25h-9.59V80.47h9.59Z" transform="translate(-2)"/><path class="cls-6" d="M521.8,86.11a3.35,3.35,0,0,0-1.86,1.29,2.14,2.14,0,0,1,.28.84,11.23,11.23,0,0,1,.32,1.72,17.38,17.38,0,0,1,.1,1.92c0,.56,0,1.1-.07,1.61a11.31,11.31,0,0,1-.21,1.47c-.18.89-.41,1.77-.66,2.66a8.76,8.76,0,0,1-1,2.31,7.42,7.42,0,0,1-4.09,3.08,29.66,29.66,0,0,1-5.43,1.19c-1.12.14-2.42.24-3.92.28s-3,.07-4.55.07h-3a23.48,23.48,0,0,1-2.63-.14c-.88-.09-1.53-.15-1.92-.17a7.43,7.43,0,0,1-1.37-.25,10.58,10.58,0,0,0-2,1.05,3.83,3.83,0,0,0-1.4,1.47,1.06,1.06,0,0,0-.07.42,1.33,1.33,0,0,0,.07.49c.14.47.56.77,1.26.91s1.38.26,2,.35c.84.09,2,.15,3.61.18s3.3.07,5.21.14,3.9.16,5.95.28,4,.29,5.74.52a31.66,31.66,0,0,1,3.78.74,12.92,12.92,0,0,1,3.12,1.22,9.09,9.09,0,0,1,2.38,1.93,7.38,7.38,0,0,1,1.5,2.76,9.46,9.46,0,0,1,.49,2.31,25.41,25.41,0,0,1,0,5.6,11.1,11.1,0,0,1-.53,2.38,8.16,8.16,0,0,1-2,3,11.37,11.37,0,0,1-2.94,2,17.33,17.33,0,0,1-3.54,1.19,34.12,34.12,0,0,1-3.92.63c-1.58.19-3.23.33-4.93.42s-3.44.14-5.22.14-3.51,0-5.21-.14-3.35-.23-4.94-.42a27,27,0,0,1-3.18-.49,16.9,16.9,0,0,1-3.19-1,11.77,11.77,0,0,1-2.8-1.72,8.6,8.6,0,0,1-2.1-2.66,7.61,7.61,0,0,1-.8-3.08c-.07-1.17-.11-2.17-.11-3a27.15,27.15,0,0,1,.14-2.87,9.73,9.73,0,0,1,.7-2.59,7.59,7.59,0,0,1,1.23-2,7.84,7.84,0,0,1,2.41-1.93,2.42,2.42,0,0,1-1.36-1.36,9,9,0,0,1-.53-1.72,3.33,3.33,0,0,1-.07-.7v-1.33a2.15,2.15,0,0,1,.07-.56,4.39,4.39,0,0,1,.56-1.78,8.86,8.86,0,0,1,1.26-1.51c.38-.37.77-.76,1.19-1.15a6.51,6.51,0,0,1,1.26-1,5.58,5.58,0,0,1-3-2.24,8.28,8.28,0,0,1-1.54-3.5c-.09-.65-.16-1.39-.21-2.2s-.07-1.48-.07-2,0-1.21.11-2.1.15-1.66.24-2.31A7.94,7.94,0,0,1,482,83.13a8.84,8.84,0,0,1,2.76-2.34,13.11,13.11,0,0,1,3.54-1.3,36.45,36.45,0,0,1,3.88-.63c1.26-.09,2.64-.15,4.13-.17s2.83,0,4,0c1.35,0,2.8,0,4.34.07s3,.14,4.27.28a25.63,25.63,0,0,1,3.75.63,7.08,7.08,0,0,1,2.62,1.19,9.22,9.22,0,0,1,2.31-1.5,18.18,18.18,0,0,1,2.87-1.09,3.43,3.43,0,0,1,.63-.14l1.05-.14c.38,0,.76-.08,1.16-.1s.73,0,1,0h.35v7.84A11,11,0,0,0,521.8,86.11ZM491.38,116a5.81,5.81,0,0,0-4.62,2.94,5.25,5.25,0,0,0-.28,1.12,10.08,10.08,0,0,0-.07,1c0,.28,0,.62,0,1a4,4,0,0,0,.17,1,3,3,0,0,0,.77,1.4,4.27,4.27,0,0,0,1.3.88,8.46,8.46,0,0,0,1.57.49,16.17,16.17,0,0,0,1.68.24c1.17.09,2.36.18,3.57.25s2.43.1,3.64.1l1.61,0c.56,0,1.1,0,1.61,0l3.57,0a33.27,33.27,0,0,0,3.5-.25,11.49,11.49,0,0,0,2-.49,4.92,4.92,0,0,0,1.82-1,3.69,3.69,0,0,0,1-1.43,4.52,4.52,0,0,0,.35-1.72v-.21a6.17,6.17,0,0,0-.21-1.57,3.07,3.07,0,0,0-.56-1.23,3.19,3.19,0,0,0-1.54-1,12.29,12.29,0,0,0-1.75-.42,63.84,63.84,0,0,0-9.76-.8q-5,0-9.28-.18Zm20.23-26.74a4.76,4.76,0,0,0-1.19-1.89A6,6,0,0,0,507,86.28c-.88-.09-1.82-.16-2.8-.21s-2-.07-3.08-.07h-1.4c-1,0-1.89,0-2.73.07s-1.72.12-2.66.21a12.09,12.09,0,0,0-3.46.77,3.37,3.37,0,0,0-2.14,2.24,9.81,9.81,0,0,0-.21,1.33c0,.52-.07,1-.07,1.54a6,6,0,0,0,.56,2.59,3.14,3.14,0,0,0,2,1.65,14.27,14.27,0,0,0,3.18.59,21,21,0,0,0,2.49.14h2.76c1.36,0,2.71,0,4.06-.07s2.55-.12,3.57-.21a7.48,7.48,0,0,0,3-.84,3.39,3.39,0,0,0,1.47-2,7.19,7.19,0,0,0,.21-1.19,12,12,0,0,0,.07-1.4A9.44,9.44,0,0,0,511.61,89.29Z" transform="translate(-2)"/><path class="cls-6" d="M562.22,122.4V95.1a15.52,15.52,0,0,0-.1-1.71,9.17,9.17,0,0,0-.42-1.89,5.94,5.94,0,0,0-1-1.79,4.52,4.52,0,0,0-1.86-1.33,10.06,10.06,0,0,0-2.73-.8,26.87,26.87,0,0,0-3.15-.32c-1.07,0-2.14,0-3.22.11a20.6,20.6,0,0,0-3.15.45A7.23,7.23,0,0,0,542,90.73a9.56,9.56,0,0,0-1.3,5.21V122.4h-9.52V66.33h9.38V84a6.59,6.59,0,0,1,2.24-2.83,9,9,0,0,1,3.85-1.65,27.45,27.45,0,0,1,3.57-.49c1.26-.09,2.5-.14,3.71-.14h1.05a39.1,39.1,0,0,1,5.64.53,17.57,17.57,0,0,1,4.72,1.43,9.59,9.59,0,0,1,5,4.9,18.75,18.75,0,0,1,1.4,7.56v29.12Z" transform="translate(-2)"/><path class="cls-6" d="M623.19,123.17c-.28-1.26-.58-2.69-.91-4.3s-.67-3.26-1-4.94-.79-3.3-1.26-4.86a30.1,30.1,0,0,0-1.54-4.17,10.15,10.15,0,0,0-1.5-2.27,6.37,6.37,0,0,0-1.75-1.37,6.69,6.69,0,0,0-2.07-.66,15.39,15.39,0,0,0-2.45-.18H591.41v22.75h-9.94V66.33h32.27a37.31,37.31,0,0,1,4.76.32,18.59,18.59,0,0,1,4.66,1.22,12.85,12.85,0,0,1,4,2.56,9.22,9.22,0,0,1,2.52,4.37,23.71,23.71,0,0,1,.7,3.33,29,29,0,0,1,.28,4.23c0,1.36,0,2.65-.1,3.89a14.54,14.54,0,0,1-.6,3.46A11.76,11.76,0,0,1,629,92a12,12,0,0,1-1.47,2.24,10.59,10.59,0,0,1-2,1.86,8.79,8.79,0,0,1-2.7,1.22,9,9,0,0,1,2,1,8.31,8.31,0,0,1,3,3.22,22.68,22.68,0,0,1,1.71,4.62q.5,1.89,1,4.2c.37,1.54.74,3.09,1.09,4.66s.69,3,1,4.48.59,2.64.77,3.67ZM591.41,75.22V91.53h20c.94,0,1.83,0,2.7-.1a10.75,10.75,0,0,0,2.45-.49,5.63,5.63,0,0,0,2.06-1.23A5.39,5.39,0,0,0,620,87.4a7.17,7.17,0,0,0,.46-1.85c.07-.63.12-1.28.17-1.93v-1c0-.65,0-1.29-.07-1.92a6.82,6.82,0,0,0-.28-1.58,4.56,4.56,0,0,0-3.08-3.25,18.56,18.56,0,0,0-5.32-.67Z" transform="translate(-2)"/><path class="cls-6" d="M680.73,109.35a11.54,11.54,0,0,1-.21,1.36,20.67,20.67,0,0,1-1.36,5.43,10.15,10.15,0,0,1-2.49,3.6,11.16,11.16,0,0,1-3.78,2.21,23.8,23.8,0,0,1-5.25,1.15c-1.12.14-2.25.23-3.39.28s-2.33.07-3.54.07h-2.8q-2.45-.08-4.86-.24a32.88,32.88,0,0,1-4.66-.67,11.94,11.94,0,0,1-7-3.71c-1.61-1.86-2.68-4.67-3.19-8.4a40.89,40.89,0,0,1-.38-4.2c-.07-1.54-.13-3.13-.18-4.76s0-3.07.11-4.58.15-2.89.24-4.1a21.64,21.64,0,0,1,1.61-6.72A11,11,0,0,1,642.72,82a12.21,12.21,0,0,1,4.41-2.21,28.38,28.38,0,0,1,5.53-.91c1-.09,2-.16,3.05-.21s2-.07,3.11-.07c.51,0,1,0,1.54,0s1,0,1.54,0l3.12.14q1.5.08,2.76.21a20.43,20.43,0,0,1,5.53,1.4A13,13,0,0,1,677,82.78,9.46,9.46,0,0,1,679.26,86a15.52,15.52,0,0,1,1,4.09c.09.93.16,2,.21,3.22s.07,2.45.07,3.71,0,2.23,0,3.33,0,2.11,0,3h-33.6c0,.8,0,1.69,0,2.7a22.53,22.53,0,0,0,.24,2.9,13.91,13.91,0,0,0,.74,2.91,4.47,4.47,0,0,0,1.29,1.85,5.52,5.52,0,0,0,2,1,14.81,14.81,0,0,0,2.94.49,40.86,40.86,0,0,0,4.2.21q.63,0,1.26,0c.42,0,.87,0,1.33,0,.84,0,1.75,0,2.73-.07a14.66,14.66,0,0,0,2.66-.35,5.36,5.36,0,0,0,4.9-5,7.16,7.16,0,0,0,.18-1.08c0-.35.06-.72.1-1.09h9.24A13,13,0,0,1,680.73,109.35ZM671.6,95.14q0-.6,0-1.23c0-.33,0-.65,0-1s-.06-.65-.11-1A6.2,6.2,0,0,0,670,88.52c-.89-1-2.4-1.63-4.55-1.82a19,19,0,0,0-2.1-.17c-.75,0-1.51,0-2.31,0-.46,0-.92,0-1.36,0l-1.3,0c-.88,0-1.81,0-2.76.07s-1.84.12-2.63.21a6.58,6.58,0,0,0-4.3,2.14,9.52,9.52,0,0,0-1.58,5.14,7.2,7.2,0,0,0-.07,1v1.15h24.57C671.56,95.92,671.57,95.53,671.6,95.14Z" transform="translate(-2)"/><path class="cls-6" d="M727,110.5c0,.89,0,1.75-.1,2.59a10.06,10.06,0,0,1-.46,2.31,8.85,8.85,0,0,1-3.57,5.29,17.08,17.08,0,0,1-7,2.34,33.4,33.4,0,0,1-4.23.46c-1.52.07-3.1.1-4.73.1q-2,0-4,0c-1.3,0-2.5-.09-3.57-.18a24.37,24.37,0,0,1-6.47-1.33,9.3,9.3,0,0,1-6.16-7.07,28,28,0,0,1-.6-6.23h9.24a16.67,16.67,0,0,0,.18,2.56,4.75,4.75,0,0,0,.77,2,4.68,4.68,0,0,0,1.68,1.47,8.11,8.11,0,0,0,2.9.8c1.22.14,2.39.22,3.54.25l2.76,0,1.47,0c.56,0,1.12-.06,1.68-.11l1.58-.14c.49,0,.87-.09,1.15-.14a7,7,0,0,0,3.26-1.12,4.73,4.73,0,0,0,1.43-2,3,3,0,0,0,.18-.91c0-.37,0-.75,0-1.12s0-.71,0-1a7.25,7.25,0,0,0-.11-.81,3.72,3.72,0,0,0-1.33-2.24,7.1,7.1,0,0,0-3.29-1.19c-1.12-.14-2.41-.28-3.88-.42l-4.48-.42-4.41-.42c-1.43-.14-2.65-.28-3.68-.42A13.93,13.93,0,0,1,690,100.7a8.78,8.78,0,0,1-2.94-5.25,17.08,17.08,0,0,1-.28-3.36V91c0-.74.11-1.47.18-2.17a12.33,12.33,0,0,1,.38-2,8.48,8.48,0,0,1,1.68-3.46,10.35,10.35,0,0,1,2.84-2.38,14.76,14.76,0,0,1,3.64-1.47,26.32,26.32,0,0,1,4.09-.74c1.12-.09,2.25-.16,3.4-.21s2.29-.07,3.46-.07a59.39,59.39,0,0,1,7.21.42,19.06,19.06,0,0,1,6.9,1.89,9.31,9.31,0,0,1,3.53,3.36,9,9,0,0,1,1.09,3.22,47.39,47.39,0,0,1,.31,5h-9.1v-.49a6.26,6.26,0,0,0-1.12-3.64,5.5,5.5,0,0,0-3.64-1.54c-.75-.09-1.57-.17-2.48-.24s-1.93-.11-3.05-.11c-2,0-3.71.07-5.11.21a9.72,9.72,0,0,0-3.39,1A3.33,3.33,0,0,0,696,89.5a7.18,7.18,0,0,0-.07,3.71q.5,2.24,4,2.66c1,.14,2.13.27,3.43.39l4.13.35,4.27.35c1.4.11,2.66.24,3.78.38a30.58,30.58,0,0,1,3.92.77,10.88,10.88,0,0,1,3.26,1.47,9.22,9.22,0,0,1,2.45,2.49,10,10,0,0,1,1.43,3.81A22.33,22.33,0,0,1,727,110.5Z" transform="translate(-2)"/><path class="cls-6" d="M809.67,112.25a16,16,0,0,1-3.43,5.71,16.48,16.48,0,0,1-5.5,3.74,30.32,30.32,0,0,1-7.38,2c-1.4.23-2.8.4-4.2.49s-2.87.14-4.41.14-2.92,0-4.27-.14-2.71-.21-4.06-.35q-9.58-1.19-13.79-6.09t-4.2-13.3V66.33h10.36v37c0,3.32.67,5.91,2,7.77s3.78,3.06,7.28,3.57a46.77,46.77,0,0,0,6.58.42l3.64-.14a17.6,17.6,0,0,0,3.22-.42q4.76-1,6.86-3.92a13,13,0,0,0,2.1-7.7V66.33h10.36v38.15A23.32,23.32,0,0,1,809.67,112.25Z" transform="translate(-2)"/><path class="cls-6" d="M820.87,122.4V66.33H831v56.14Z" transform="translate(-2)"/></g></g></g></svg>
