<svg xmlns="http://www.w3.org/2000/svg" viewBox="0 0 900 180"><defs><style>.cls-1{fill:#08111b;opacity:0.64;}.cls-2{fill:#8ec4e0;}.cls-3,.cls-4{fill:#f2f2f2;}.cls-4{stroke:#000;stroke-miterlimit:10;}</style></defs><g id="Layer_2" data-name="Layer 2"><g id="New_Project_Title" data-name="New Project Title"><polygon class="cls-1" points="846.18 4 64.54 4 58.37 0 53.63 0 0 40.65 0 139.35 53.63 180 58.37 180 64.54 176 846.18 176 896 137.18 896 42.83 846.18 4"/><path class="cls-2" d="M847.37,0H53.63L0,40.65v98.7L53.63,180H847.37L900,139.35V40.65ZM896,137.17,846.18,176H54.82L4,137.17V42.83L54.82,4H846.18L896,42.83Z"/><path d="M95.93,162.24C88.3,123.79,82.6,139.88,71.56,115c-.89-1.62-3.14-11.51-1.46-17.81-3.19-6.31-7.16-11.17-11-13.08C48.43,78.63,48.48,67.64,36.5,60.37c8.22.39,10.33.49,16.89,8.29-.89-1.22-2.12-2.73-3.07-3.92,6.08-1.64,10,3.15,13.2,7.68C69.3,70.19,76,75.94,76.73,78.93c2.49-6.3-4.4-9-3.87-15.77-6.15-4.22-4.57-12.75-4.44-19.22l1.19,3c-1.14-5.63,1.69-10.09,4.22-13.31a57.66,57.66,0,0,0,1.12,7C72.73,33.93,78.44,23,84.33,19.73,77,49.88,88.24,42.9,97,64.37c8.77-21.45,20-14.55,12.67-44.63,5.89,3.21,11.6,14.21,9.38,20.87a57.66,57.66,0,0,0,1.12-7c2.52,3.21,5.37,7.7,4.22,13.31l1.19-3c.12,6.47,1.71,15-4.44,19.21.53,6.75-6.36,9.46-3.87,15.77.79-3,7.42-8.73,13.21-6.51,3.18-4.53,7.12-9.32,13.2-7.68-1,1.19-2.18,2.69-3.07,3.92,6.54-7.79,8.69-7.9,16.89-8.29-12,7.27-11.92,18.25-22.6,23.75-3.84,1.91-7.81,6.77-11,13.08,1.68,6.31-.57,16.19-1.47,17.81-3.62,12.81-18.88,18.93-21.52,34.5-1.49,6.47-.53,9.25-3.91,14.76ZM85.14,119.71c3.14,4.34,6.28,5.88,9.37,10l-1.83-14.08Zm14.35,10c3.09-4.11,6.23-5.65,9.37-10l-7.54-4.09ZM80.81,108a22.1,22.1,0,0,0,2.45,8.66l4-6.81Zm29.93,8.66a22.1,22.1,0,0,0,2.45-8.66l-6.45,1.85Zm-27-21.62A21,21,0,0,0,81,103l6.31-1.65ZM113,103a21,21,0,0,0-2.78-8l-3.53,6.31Zm-11.87-7.28L108,91.92c-3.13-4-8.87-8.65-11-15.11-2.18,6.47-7.89,11.09-11,15.11l6.88,3.84,4.16-18Z"/><path class="cls-3" d="M104.89,108.85,111,119.17l-10.63-5.77L97,139.21,93.66,113.4,83,119.17l6.08-10.32-12.75-3.64,12.75-3.34L83.34,91.54l10.32,5.77L97,82.85l3.34,14.46,10.32-5.77-5.77,10.33,12.75,3.34Zm-34-13.06c.65-7.05,5.92-10.36,4.86-16.39.22-.69-5.1-7.85-10-6.37a27.83,27.83,0,0,1,5.46,7.28c-8.91-4-9.7-14.12-18.52-14.87,3,4.13,9.45,14.07,12.76,14.87-7.83-1.48-15.88-19.59-25.2-18.82C50.21,69.26,47.87,72,55.1,79.7,62.45,85.22,64.46,83.94,70.89,95.79Zm63.45-13.05c10.49-5.39,8.63-13.59,19.43-21.25-9.29-.79-17.4,17.36-25.2,18.82,3.34-.83,9.73-10.71,12.76-14.87-8.83.75-9.61,10.81-18.52,14.87A27.83,27.83,0,0,1,128.27,73c-4.92-1.47-10.25,5.67-10,6.37-1.06,6,4.21,9.33,4.86,16.39C127.34,87.7,131.34,84.3,134.34,82.74ZM95.27,133c-2.61-5.49-7.71-7.91-11.38-13.23l-3.3,1.8,2.12-3.62a22.91,22.91,0,0,1-3.16-10.85l-6.64-1.9,6.76-1.77a23,23,0,0,1,3.59-10.13L81,89.18l3.73,2.08c9.87-10.14,17.6-20.4,6.83-35.54-10.7-10.57-12.62-17.95-9.1-33.09C59.36,46.51,102.07,56.32,90,78.79c8.28-19.26-16.43-25.46-17-42.2C61.11,55.39,96.17,60,85.46,79.4a12.54,12.54,0,0,1-.91,1.52c3.65-4.37,2.17-16.86-3.64-20C77.45,58.3,70.1,53.17,69.37,49.34c-.77,8.95,2.82,12,9.41,16.4,5.25,4.38,4.31,12.75.61,16.39C83.2,77,82.92,66.89,74.23,64.22c4.13,14.22,7.47,7.32-.3,24.59-8.68,18.4,1,34.16,14.57,46.45,5.27,7.13,5.84,18.08,8.5,26.11A149.65,149.65,0,0,0,95.27,133ZM97,146.31v15.06c2.65-8,3.23-19,8.5-26.11,13.57-12.27,23.25-28.09,14.57-46.45-7.75-17.19-4.43-10.41-.3-24.59-8.69,2.67-9,12.79-5.16,17.91-3.69-3.64-4.64-12,.61-16.39,6.59-4.34,10.18-7.47,9.41-16.4-.71,3.81-8.09,9-11.54,11.54-5.8,3.16-7.3,15.7-3.64,20a12.54,12.54,0,0,1-.91-1.52C97.83,60,132.89,55.39,121,36.59c-.59,16.88-25.23,22.72-17,42.2-12-22.42,30.66-32.32,7.59-56.16,3.51,15.17,1.61,22.5-9.11,33.09-10.76,15.13-3,25.42,6.84,35.54L113,89.18l-2.29,4.09a23,23,0,0,1,3.59,10.13l6.76,1.77-6.64,1.9a22.91,22.91,0,0,1-3.16,10.85l2.12,3.62-3.3-1.8C99.09,132.17,98.53,128.76,97,146.31Z"/><path class="cls-4" d="M212.87,103.57v16.89h-12V70.69h19.86a23.17,23.17,0,0,1,10.1,2.1,16,16,0,0,1,6.8,6,16.26,16.26,0,0,1,2.41,8.8,14.39,14.39,0,0,1-5.21,11.63q-5.22,4.37-14.31,4.36Zm0-9.26h7.86A7.42,7.42,0,0,0,226,92.57a6.5,6.5,0,0,0,1.83-4.93A8,8,0,0,0,226,82.07,6.68,6.68,0,0,0,220.86,80h-8Z"/><path class="cls-4" d="M272.1,107.23a4.92,4.92,0,0,0-1.86-4.1,23.11,23.11,0,0,0-6.55-3A63.65,63.65,0,0,1,256,97Q246.36,92.3,246.36,84a11.69,11.69,0,0,1,2.41-7.3,15.56,15.56,0,0,1,6.82-4.92A26.39,26.39,0,0,1,265.5,70a23.27,23.27,0,0,1,9.62,1.91,15.3,15.3,0,0,1,6.62,5.45,14.28,14.28,0,0,1,2.36,8.09h-12a6,6,0,0,0-1.86-4.72,7.24,7.24,0,0,0-5-1.68,8.24,8.24,0,0,0-5.08,1.42,4.18,4.18,0,0,0,.19,7.08,25.66,25.66,0,0,0,7.21,3.21A44.94,44.94,0,0,1,276,94.34q8.07,4.65,8.07,12.82a12.13,12.13,0,0,1-4.93,10.25q-4.92,3.74-13.5,3.73a26.72,26.72,0,0,1-11-2.17,16.51,16.51,0,0,1-7.38-6,15.4,15.4,0,0,1-2.48-8.7h12q0,4,2.07,5.9c1.37,1.26,3.61,1.9,6.71,1.9a7.74,7.74,0,0,0,4.7-1.28A4.25,4.25,0,0,0,272.1,107.23Z"/><path class="cls-4" d="M302.25,103.57v16.89h-12V70.69h19.86a23.17,23.17,0,0,1,10.1,2.1,16,16,0,0,1,6.8,6,16.26,16.26,0,0,1,2.41,8.8,14.39,14.39,0,0,1-5.21,11.63q-5.22,4.37-14.31,4.36Zm0-9.26h7.86a7.42,7.42,0,0,0,5.31-1.74,6.5,6.5,0,0,0,1.83-4.93,8,8,0,0,0-1.88-5.57A6.68,6.68,0,0,0,310.24,80h-8Z"/><path class="cls-4" d="M333.38,101.62a21.79,21.79,0,0,1,2.16-9.86,15.29,15.29,0,0,1,6.18-6.64,18.65,18.65,0,0,1,9.47-2.33q8.31,0,13.09,5.15t4.79,14v.41q0,8.66-4.81,13.72t-13,5.08q-7.89,0-12.68-4.73t-5.16-12.84Zm11.52.72q0,5.13,1.61,7.52a5.33,5.33,0,0,0,4.75,2.39q6.15,0,6.29-9.46v-1.17q0-9.95-6.36-9.94-5.78,0-6.25,8.58Z"/><path class="cls-4" d="M408.68,120.46H374v-7.52l16-16.82q5.91-6.74,5.91-10.7a7.38,7.38,0,0,0-1.4-4.88,5,5,0,0,0-4.07-1.68,5.08,5.08,0,0,0-4.27,2.24,9.23,9.23,0,0,0-1.64,5.59H372.93a16.28,16.28,0,0,1,2.29-8.46,16,16,0,0,1,6.36-6.07A18.85,18.85,0,0,1,390.67,70c5.37,0,9.52,1.24,12.42,3.73s4.36,6,4.36,10.7a15.66,15.66,0,0,1-1.09,5.72A25.4,25.4,0,0,1,403,96a86.14,86.14,0,0,1-7.44,8.18l-6.42,7.42h19.58Z"/><path class="cls-4" d="M414.59,73.94a5.18,5.18,0,0,1,1.78-4,7.57,7.57,0,0,1,9.23,0,5.46,5.46,0,0,1,0,8.07,7.57,7.57,0,0,1-9.23,0A5.16,5.16,0,0,1,414.59,73.94Zm12.24,46.52H415.28v-37h11.55Z"/><path class="cls-4" d="M493.48,120.46H481.55V99.68H463.88v20.78h-12V70.69h12V90.45h17.67V70.69h11.93Z"/><path class="cls-4" d="M500.45,73.94a5.14,5.14,0,0,1,1.78-4,7.57,7.57,0,0,1,9.23,0,5.46,5.46,0,0,1,0,8.07,7.57,7.57,0,0,1-9.23,0A5.12,5.12,0,0,1,500.45,73.94Zm12.24,46.52H501.14v-37h11.55Z"/><path class="cls-4" d="M518.43,101.69a25,25,0,0,1,1.85-9.91,14.81,14.81,0,0,1,5.3-6.65,14,14,0,0,1,8-2.34,11.09,11.09,0,0,1,9,3.9l.41-3.22H553.5v35.58a15.67,15.67,0,0,1-2.27,8.5,14.66,14.66,0,0,1-6.58,5.54,24.31,24.31,0,0,1-10,1.93,21,21,0,0,1-7.88-1.54,14.26,14.26,0,0,1-5.83-4l4.82-6.77a10.57,10.57,0,0,0,8.48,3.8q7.65,0,7.65-7.87v-1.16a10.81,10.81,0,0,1-8.37,3.66A13.38,13.38,0,0,1,522.6,116q-4.17-5.17-4.17-13.86Zm11.55.72a13.18,13.18,0,0,0,1.71,7.2,5.41,5.41,0,0,0,4.79,2.64,6.12,6.12,0,0,0,5.43-2.49V94.21a5.94,5.94,0,0,0-5.36-2.53,5.43,5.43,0,0,0-4.82,2.75C530.57,96.26,530,98.92,530,102.41Z"/><path class="cls-4" d="M571.31,87.44a11.52,11.52,0,0,1,9.43-4.65q6.12,0,9.23,3.62t3.18,10.7v23.35H581.6V97.38a6.5,6.5,0,0,0-1.2-4.32c-.8-.92-2.15-1.38-4.07-1.38q-3.55,0-5,2.25v26.53H559.79V68h11.52Z"/><path class="cls-4" d="M618.58,102.85h-6.5v17.61h-12V70.69h19.58q8.85,0,13.84,3.93t5,11.09a16.2,16.2,0,0,1-2.1,8.61,14.91,14.91,0,0,1-6.58,5.53l10.39,20.09v.52H627.36Zm-6.5-9.23h7.59a6.82,6.82,0,0,0,5.15-1.79,7,7,0,0,0,1.72-5,7.05,7.05,0,0,0-1.74-5.06,6.75,6.75,0,0,0-5.13-1.83h-7.59Z"/><path class="cls-4" d="M663.11,121.14q-8.5,0-13.77-5.08t-5.26-13.21v-.95a22.78,22.78,0,0,1,2.1-10,15.34,15.34,0,0,1,6.13-6.71,18.47,18.47,0,0,1,9.57-2.38q7.8,0,12.31,4.84t4.51,13.48v4.48H655.8a8.33,8.33,0,0,0,2.7,4.89,8.06,8.06,0,0,0,5.4,1.77,10.37,10.37,0,0,0,8.55-3.82l5.26,6.22a14.74,14.74,0,0,1-6.1,4.73A20.7,20.7,0,0,1,663.11,121.14Zm-1.29-29.46q-5.07,0-6,6.7h11.62v-.89A5.68,5.68,0,0,0,666,93.2,5.59,5.59,0,0,0,661.82,91.68Z"/><path class="cls-4" d="M702.69,110.07a2.66,2.66,0,0,0-1.53-2.36,23.69,23.69,0,0,0-5.85-1.85,26.65,26.65,0,0,1-7.11-2.51,11.94,11.94,0,0,1-4.27-3.78,9,9,0,0,1-1.47-5.09,10.23,10.23,0,0,1,4.2-8.39c2.81-2.2,6.47-3.3,11-3.3,4.88,0,8.79,1.11,11.76,3.32a10.36,10.36,0,0,1,4.44,8.71H702.32q0-4.44-4.68-4.44a4.62,4.62,0,0,0-3,1,3.12,3.12,0,0,0-1.23,2.51,2.85,2.85,0,0,0,1.51,2.49,14.1,14.1,0,0,0,4.8,1.58,41.21,41.21,0,0,1,5.79,1.47q8.34,2.86,8.34,10.28a9.69,9.69,0,0,1-4.49,8.24q-4.5,3.18-11.64,3.18a20.13,20.13,0,0,1-8.48-1.71,14.2,14.2,0,0,1-5.81-4.65,10.51,10.51,0,0,1-2.08-6.18h10.76a4.49,4.49,0,0,0,1.71,3.74,7.1,7.1,0,0,0,4.21,1.18,5.54,5.54,0,0,0,3.54-1A3.07,3.07,0,0,0,702.69,110.07Z"/><path class="cls-4" d="M776.18,70.69v32.57a18.73,18.73,0,0,1-2.36,9.59,15.26,15.26,0,0,1-6.77,6.17,23.83,23.83,0,0,1-10.42,2.12q-9.09,0-14.32-4.72T737,103.5V70.69H749v33.05q.21,8.17,7.59,8.17a7.35,7.35,0,0,0,5.64-2q1.9-2.06,1.91-6.66V70.69Z"/><path class="cls-4" d="M796.45,120.46h-12V70.69h12Z"/></g></g></svg>
